<?xml version="1.0" encoding="UTF-8"?>
<svg id="Camada_1" data-name="Camada 1" xmlns="http://www.w3.org/2000/svg" version="1.1" viewBox="0 0 59.14 55.73">
  <defs>
    <style>
      .cls-1 {
        fill: #393736;
        stroke-width: 0px;
      }
    </style>
  </defs>
  <path class="cls-1" d="M59.14,26.65c-.17,5.64-2.2,11.19-5.84,15.5-1.19,1.43-2.53,2.77-4,3.85-.1.07-.15.19-.13.32l1.4,7.99c-1.34-.95-6.86-4.84-6.86-4.84-.13-.09-.32-.13-.48-.07-3.69.97-7.45,1.91-11.25,1.9C8.92,50.34-2.48,23.09,16.12,7.89c16.23-13.18,42.75-3.09,43.02,18.76-.1-19.43-20.45-30.76-37.39-25.26C10.04,4.2-.04,13.95,0,26.59c-.03,12.26,9.44,21.79,20.69,24.92,3.09,1.13,6.5,1.78,10.19,1.79,2.37,0,4.7-.45,6.99-1.07,2.06,1.32,4.23,2.45,6.45,3.48,2.06.09,4.15-.1,6.21-.37.25.17.41.27.41.27.3.23.75-.07.67-.44l-1.77-8.8c5.72-4.86,9.19-12.24,9.31-19.73ZM3.4,16.32c2.65-5.36,7.1-9.47,12.34-12.15-.55.34-1.08.69-1.61,1.07C-2.51,17.48.64,38.9,14.7,48.45,3.67,42.14-2.88,29.45,3.4,16.32ZM44.73,54.82c-2.08-1.02-4.2-1.96-6.39-2.72,1.68-.48,3.35-1.03,4.99-1.57.99.66,5.19,3.46,6.89,4.6-1.93-.23-4.59-.45-5.49-.31Z"/>
  <path class="cls-1" d="M39.33,13.12c-2.58.87-4.66,2.78-6.04,5.08-4.52-6.16-13.75-7.46-18.71-.61-3.81,5.87-1.18,14.22,4.84,17.36,5.57,2.48,10.81,5.41,15.61,9.29-4.14-4.44-9.31-7.98-14.69-10.82-4.68-2.79-6.67-9.77-3.55-14.3,2.4-3.42,7.74-4.17,11.16-1.92,1.73,1.09,3.25,2.98,4.12,4.79.46,1.24,2.41,1.19,2.78-.11,1.58-5.61,8.49-9,12.6-3.95,2.17,3.07,1.53,7.85-.6,10.94-3.5,5.43-8.74,9.62-11.81,15.37,3.9-5.34,9.43-9,13.36-14.3,2.86-3.74,3.84-9.25,1.15-13.49-2.2-3.26-6.57-4.5-10.2-3.33Z"/>
</svg>